<svg width="45" height="35" viewBox="0 0 45 35" fill="none" xmlns="http://www.w3.org/2000/svg">
<path d="M14.8011 0C11.3969 0 0 9.94941 0 23.3142C0 31.0362 4.73637 34.6001 10.2128 34.6001C15.3932 34.6001 19.2415 31.0362 19.2415 26.2842C19.2415 21.3838 15.9852 17.8198 10.8048 17.8198C10.2128 17.8198 9.76876 17.8198 9.32472 17.9683C8.58466 18.1168 8.28864 17.8198 8.43666 17.0773C10.5088 7.87042 16.8733 3.41547 16.8733 2.07899C16.8733 0.890989 15.6892 0 14.8011 0ZM25.1618 23.3142C25.1618 31.0362 29.8983 34.6001 35.3748 34.6001C40.5551 34.6001 44.4035 31.0362 44.4035 26.2842C44.4035 21.3838 41.1471 17.8198 35.9668 17.8198C35.3748 17.8198 34.9307 17.8198 34.4866 17.9683C33.7467 18.1168 33.4507 17.8198 33.5986 17.0773C35.6708 7.87042 42.0353 3.41547 42.0353 2.07899C42.0353 0.890989 40.8511 0 39.9631 0C36.5588 0 25.1618 9.94941 25.1618 23.3142Z" fill="#525E34"/>
</svg>
